<svg width="310" height="337" viewBox="0 0 310 337" fill="none" xmlns="http://www.w3.org/2000/svg">
<path d="M243.685 339.199C243.685 339.199 240.878 323.762 254.113 316.669C267.349 309.577 266.146 292.471 271.36 281.206C276.574 269.942 281.387 259.511 293.82 272.445C306.254 285.378 280.183 314.583 293.82 322.093C307.457 329.603 305.451 339.199 305.451 339.199H243.685Z" fill="#008996"/>
<path d="M288.835 268.205L274.769 339.407L258.325 314.374" stroke="#EEEADA" stroke-miterlimit="10"/>
<path d="M294.478 322.464L275.374 339.407" stroke="#EEEADA" stroke-miterlimit="10"/>
<path d="M227.642 339.616C227.642 339.616 204.78 319.589 218.016 303.735C231.252 287.881 233.658 262.014 232.054 248.246C230.449 234.478 241.932 229.609 248.622 266.462C255.312 303.314 270.67 309.994 266.603 339.616H227.642Z" fill="#64B3BB"/>
<path d="M236.867 241.153L243.685 339.198" stroke="#EEEADA" stroke-miterlimit="10"/>
<path d="M218.016 303.735L242.41 320.841L259.291 300.243" stroke="#EEEADA" stroke-miterlimit="10"/>
<path d="M129.378 94.2939H189.539V146.825C189.539 151.925 187.592 156.816 184.125 160.422C180.658 164.029 175.956 166.054 171.054 166.054H147.863C142.961 166.054 138.259 164.029 134.792 160.422C131.325 156.816 129.378 151.925 129.378 146.825V94.2939Z" fill="black"/>
<path d="M221.839 218.17L221.498 217.789L221.69 217.723L221.839 218.17Z" fill="#DBCAA7"/>
<path d="M248.498 298.069L220.824 308.132C220.824 308.132 205.061 256.422 197.962 236.592C186.531 223.141 149.03 179.201 146.921 179.188L168.334 158.215L222.223 218.99L222.568 219.378L222.62 219.537L248.498 298.069Z" fill="#C8B68B"/>
<path d="M221.935 218.277L221.891 218.323L221.839 218.169L221.935 218.277Z" fill="#C8B68B"/>
<path d="M118.043 173.018C119.832 176.063 118.019 315.07 118.019 315.07H147.025V173.022L118.043 173.018Z" fill="#C8B68B"/>
<path d="M129.494 50.1197C138.255 50.1197 145.357 42.732 145.357 33.6189C145.357 24.5058 138.255 17.1182 129.494 17.1182C120.733 17.1182 113.631 24.5058 113.631 33.6189C113.631 42.732 120.733 50.1197 129.494 50.1197Z" fill="#DBCAA7"/>
<path d="M140.447 41.6176L142.834 59.4618L131.347 61.1265L128.527 40.0322L140.447 41.6176Z" fill="#DBCAA7"/>
<path d="M120.983 33.7018C121.637 33.7018 122.166 33.1508 122.166 32.471C122.166 31.7913 121.637 31.2402 120.983 31.2402C120.33 31.2402 119.8 31.7913 119.8 32.471C119.8 33.1508 120.33 33.7018 120.983 33.7018Z" fill="black"/>
<path d="M115.051 32.6426L116.122 40.6405L119.09 40.1774" stroke="black" stroke-width="1.68" stroke-miterlimit="10"/>
<path d="M129.875 50.1158C129.875 50.1158 137.15 50.1158 140.909 45.0801C140.909 45.0801 140.431 50.9503 130.42 54.167L129.875 50.1158Z" fill="black"/>
<path d="M125.956 45.4977C128.725 45.4977 130.97 43.1628 130.97 40.2825C130.97 37.4023 128.725 35.0674 125.956 35.0674C123.187 35.0674 120.943 37.4023 120.943 40.2825C120.943 43.1628 123.187 45.4977 125.956 45.4977Z" fill="#CCB1B5"/>
<path d="M59.7463 78.8081C53.7983 82.5964 49.0215 79.1711 45.2513 73.2926C44.9987 72.8754 44.75 72.4915 44.5053 72.0743C42.8769 69.3082 41.6978 66.5588 41.3649 63.9971L34.6508 52.5738C34.403 52.1214 34.3343 51.5864 34.4593 51.0823C34.5843 50.5781 34.8931 50.1444 35.3203 49.8731C35.7476 49.6018 36.2595 49.5142 36.7478 49.629C37.236 49.7437 37.6621 50.0517 37.9356 50.4877L42.4157 58.1102C42.6522 57.7237 42.9206 57.3594 43.2179 57.0213L36.6602 45.8984C36.4124 45.446 36.3437 44.911 36.4687 44.4069C36.5937 43.9027 36.9025 43.469 37.3298 43.1977C37.757 42.9264 38.269 42.8388 38.7572 42.9536C39.2454 43.0683 39.6715 43.3763 39.9451 43.8123L46.2621 54.5514C46.7484 54.2746 47.2507 54.0294 47.7661 53.8171L41.9144 43.8666C41.7735 43.6421 41.6774 43.3905 41.6318 43.1266C41.5861 42.8628 41.5919 42.5921 41.6487 42.3306C41.7055 42.0692 41.8121 41.8222 41.9624 41.6044C42.1126 41.3866 42.3034 41.2024 42.5234 41.0627C42.7433 40.923 42.988 40.8307 43.2429 40.7912C43.4978 40.7517 43.7577 40.7659 44.0072 40.8328C44.2568 40.8997 44.4909 41.0181 44.6956 41.1809C44.9004 41.3437 45.0716 41.5476 45.1992 41.7805L51.7248 52.8784C52.2398 52.8366 52.7569 52.8283 53.2729 52.8533L48.4239 43.0322C48.1904 42.5597 48.1469 42.0101 48.303 41.5042C48.459 40.9984 48.8019 40.5778 49.2561 40.3349C49.7103 40.092 50.2387 40.0468 50.725 40.2091C51.2112 40.3715 51.6156 40.7281 51.8491 41.2006L58.6995 55.0771C59.0164 55.3942 59.3252 55.7405 59.626 56.1076V50.7297C59.626 50.1986 59.8288 49.6892 60.1899 49.3137C60.5509 48.9381 61.0406 48.7271 61.5512 48.7271C62.0618 48.7271 62.5515 48.9381 62.9125 49.3137C63.2736 49.6892 63.4764 50.1986 63.4764 50.7297V62.1155L63.5767 62.2865C67.4591 68.8952 66.0954 74.7695 59.7463 78.8081Z" fill="#DBCAA7"/>
<path d="M93.2805 116.407L84.7977 123.57C83.6308 124.426 82.1857 124.765 80.7786 124.515C79.3716 124.265 78.117 123.445 77.2895 122.235L47.3569 78.2401C46.535 77.0269 46.2085 75.5244 46.4491 74.0614C46.6896 72.5984 47.4775 71.2941 48.6404 70.4341L56.5457 64.6139C57.7126 63.7587 59.1577 63.419 60.5647 63.6692C61.9718 63.9194 63.2263 64.7391 64.0539 65.949L93.9864 109.944C95.687 112.456 95.687 114.625 93.2805 116.407Z" fill="#DBCAA7"/>
<path d="M117.734 312.493L117.73 340.029H127.757L130.565 337.113H135.378L137.584 339.408L181.903 339.416V330.446L147.013 312.497L117.734 312.493Z" fill="black"/>
<path d="M157.237 317.578L150.619 323.344" stroke="#EEEADA" stroke-miterlimit="10"/>
<path d="M162.049 320.499L155.432 326.269" stroke="#EEEADA" stroke-miterlimit="10"/>
<path d="M174.932 142.203L110.126 147.117L114.177 77.8601C114.177 69.0986 119.367 57.254 126.666 57.254H147.591C154.89 57.2373 161.865 60.0827 161.865 68.8441L174.932 142.203Z" fill="#C20F2F"/>
<path d="M144.591 57.238H143.62L140.608 68.0104L133.689 57.3047L129.614 57.3715L129.779 53.8252H135.394L137.556 57.1921L139.625 57.2088L140.207 53.8252H144.218L144.591 57.238Z" fill="#EEEADA"/>
<path d="M52.2619 57.3256C52.4834 57.3256 52.663 57.1388 52.663 56.9084C52.663 56.678 52.4834 56.4912 52.2619 56.4912C52.0404 56.4912 51.8608 56.678 51.8608 56.9084C51.8608 57.1388 52.0404 57.3256 52.2619 57.3256Z" fill="black"/>
<path d="M53.7341 59.6499C53.9556 59.6499 54.1352 59.4631 54.1352 59.2326C54.1352 59.0022 53.9556 58.8154 53.7341 58.8154C53.5126 58.8154 53.333 59.0022 53.333 59.2326C53.333 59.4631 53.5126 59.6499 53.7341 59.6499Z" fill="black"/>
<path d="M9.31067 301.995L30.8968 337.946" stroke="#EEEADA" stroke-miterlimit="10"/>
<path d="M22.6302 324.178L30.5676 308.812" stroke="#EEEADA" stroke-miterlimit="10"/>
<path d="M1 326.703L26.6009 330.788" stroke="#EEEADA" stroke-miterlimit="10"/>
<path d="M53.6539 316.497L65.9149 325.793" stroke="#EEEADA" stroke-miterlimit="10"/>
<path d="M87.866 306.03L67.8722 316.498" stroke="#EEEADA" stroke-miterlimit="10"/>
<path d="M201.836 286.392L207.5 318.542H104.31L109.299 145.937L176.42 142.174L245.626 255.672L201.836 286.392Z" fill="#C3BEB2"/>
<path d="M109.127 180.494H169.325" stroke="white" stroke-width="2" stroke-miterlimit="10"/>
<path d="M109.127 198.526H174.635" stroke="white" stroke-width="2" stroke-miterlimit="10"/>
<path d="M108.144 215.327H179.585" stroke="white" stroke-width="2" stroke-miterlimit="10"/>
<path d="M107.627 233.627L184.325 233.644" stroke="white" stroke-width="2" stroke-miterlimit="10"/>
<path d="M107.162 250.077L189.13 247.745" stroke="white" stroke-width="2" stroke-miterlimit="10"/>
<path d="M107.162 268.2L194.292 265.271" stroke="white" stroke-width="2" stroke-miterlimit="10"/>
<path d="M106.079 288.348L199.121 281.664" stroke="white" stroke-width="2" stroke-miterlimit="10"/>
<path d="M105.582 305.905L203.577 301.649" stroke="white" stroke-width="2" stroke-miterlimit="10"/>
<path d="M110.126 166.055L165.463 167.377" stroke="white" stroke-width="2" stroke-miterlimit="10"/>
<path d="M110.126 154.933H183.403" stroke="white" stroke-width="2" stroke-miterlimit="10"/>
<path d="M167.705 174.983L192.572 170.298" stroke="white" stroke-width="2" stroke-miterlimit="10"/>
<path d="M172.189 190.211L199.699 182.238" stroke="white" stroke-width="2" stroke-miterlimit="10"/>
<path d="M177.435 208.035L208.129 196.365" stroke="white" stroke-width="2" stroke-miterlimit="10"/>
<path d="M182.589 225.537L217.218 211.594" stroke="white" stroke-width="2" stroke-miterlimit="10"/>
<path d="M188.364 241.92L225.127 224.844" stroke="white" stroke-width="2" stroke-miterlimit="10"/>
<path d="M192.748 258.259L231.104 235.825" stroke="white" stroke-width="2" stroke-miterlimit="10"/>
<path d="M196.988 274.431L237.673 245.868" stroke="white" stroke-width="2" stroke-miterlimit="10"/>
<path d="M199.699 283.629L165.074 166.055" stroke="#1F1F31" stroke-miterlimit="10"/>
<path d="M174.7 94.2941L159.535 61.5137L154.245 67.9012L164.412 94.2941H174.7Z" fill="#C20F2F"/>
<path d="M169.486 94.7117L156.41 59.1151L154.245 58.1973L166.473 94.7117H169.486Z" fill="black"/>
<path d="M83.5542 118.739L77.4778 111.934C76.4411 110.768 75.8904 109.223 75.946 107.636C76.0016 106.049 76.6591 104.549 77.7746 103.465L122.218 60.5002C123.34 59.422 124.827 58.8498 126.353 58.9084C127.88 58.967 129.322 59.6518 130.364 60.8131L136.44 67.6137C137.477 68.7808 138.027 70.3272 137.971 71.915C137.914 73.5028 137.256 75.0028 136.14 76.0872L90.0717 118.91C87.7495 121.155 85.712 121.155 83.5542 118.739Z" fill="#DBCAA7"/>
<path d="M89.3539 92.2709L90.1561 91.4824L118.332 64.2551C118.332 64.2551 123.361 55.9108 128.575 57.9969C133.789 60.083 141.811 71.7649 140.608 76.3543C139.405 80.9436 112.969 98.4916 112.969 98.4916L85.2589 123.499C85.2589 123.499 94.4075 106.227 85.6199 95.8798L89.3539 92.2709Z" fill="#C20F2F"/>
<path d="M85.2588 95.9628C85.0382 95.6124 91.9729 89.7422 91.9729 89.7422C91.9729 89.7422 99.3648 103.473 96.1241 113.694L85.2588 123.499C85.2588 123.499 91.275 105.559 85.2588 95.9628Z" fill="#EEEADA"/>
<path d="M89.2696 97.6317C89.7126 97.6317 90.0717 97.2582 90.0717 96.7973C90.0717 96.3365 89.7126 95.9629 89.2696 95.9629C88.8265 95.9629 88.4674 96.3365 88.4674 96.7973C88.4674 97.2582 88.8265 97.6317 89.2696 97.6317Z" fill="black"/>
<path d="M104.623 106.026L121.356 90.5391" stroke="#1F1F31" stroke-miterlimit="10"/>
<path d="M112.131 113.486L113.15 98.1035L118.147 93.46L112.131 113.486Z" fill="black"/>
<path d="M85.0343 96.7979C85.0343 96.7979 91.0746 103.277 85.0584 122.886C85.0584 122.886 83.9996 125.21 80.5182 124.467C80.5182 124.455 89.8192 111.58 85.0343 96.7979Z" fill="black"/>
<path d="M69.8171 109.94C70.0386 109.94 70.2182 109.753 70.2182 109.523C70.2182 109.292 70.0386 109.105 69.8171 109.105C69.5956 109.105 69.416 109.292 69.416 109.523C69.416 109.753 69.5956 109.94 69.8171 109.94Z" fill="black"/>
<path d="M70.8199 113.486C71.0414 113.486 71.221 113.299 71.221 113.069C71.221 112.838 71.0414 112.651 70.8199 112.651C70.5984 112.651 70.4188 112.838 70.4188 113.069C70.4188 113.299 70.5984 113.486 70.8199 113.486Z" fill="black"/>
<path d="M72.4243 110.566C72.6458 110.566 72.8254 110.379 72.8254 110.149C72.8254 109.918 72.6458 109.731 72.4243 109.731C72.2028 109.731 72.0232 109.918 72.0232 110.149C72.0232 110.379 72.2028 110.566 72.4243 110.566Z" fill="black"/>
<path d="M8.47237 157.532C8.69388 157.532 8.87345 157.345 8.87345 157.114C8.87345 156.884 8.69388 156.697 8.47237 156.697C8.25086 156.697 8.07129 156.884 8.07129 157.114C8.07129 157.345 8.25086 157.532 8.47237 157.532Z" fill="black"/>
<path d="M153.767 320.736C153.767 320.736 135.562 317.36 140.199 323.656C144.835 329.952 153.767 320.736 153.767 320.736Z" stroke="#EEEADA" stroke-miterlimit="10"/>
<path d="M154.826 318.897C154.826 318.897 141.915 307.127 151.437 308.992C160.959 310.857 154.826 318.897 154.826 318.897Z" stroke="#EEEADA" stroke-miterlimit="10"/>
<path d="M145.621 26.9688C150.434 37.0528 145.593 49.3021 145.593 49.3021C136.465 45.4221 132.277 32.8974 130.549 25.4126C129.662 31.7083 130.661 41.6588 142.381 49.7402C141.502 49.2062 125.319 39.1764 130.204 23.848C129.995 22.8425 129.839 21.9747 129.727 21.2905C129.805 21.1482 129.863 20.9951 129.899 20.8357L129.678 20.9818C129.678 21.0819 129.706 21.182 129.727 21.2905C129.45 21.8037 128.876 22.3168 127.878 22.8008C127.878 22.8008 122.463 30.7278 110.555 29.5179C110.555 29.5179 117.754 18.7956 126.402 17.3896C125.162 16.4631 124.162 15.231 123.493 13.8037C122.823 12.3765 122.505 10.7987 122.566 9.21192C122.627 7.62512 123.066 6.07889 123.843 4.7119C124.62 3.34491 125.711 2.19989 127.018 1.37952C128.325 0.559155 129.808 0.0890853 131.332 0.0114691C132.857 -0.0661471 134.377 0.251117 135.755 0.93481C137.133 1.6185 138.326 2.64725 139.228 3.92879C140.129 5.21034 140.711 6.70463 140.921 8.27764C140.921 8.35274 140.941 8.43201 140.949 8.50711C141.58 8.25866 142.237 8.08511 142.906 7.98977C145.301 7.66917 147.722 8.33843 149.648 9.85382C151.574 11.3692 152.852 13.6099 153.208 16.0946C153.563 18.5794 152.968 21.1101 151.549 23.1433C150.131 25.1764 148.002 26.5499 145.621 26.9688Z" fill="#E1D25A"/>
<path d="M136.573 39.0929C139.368 39.0929 141.634 36.7356 141.634 33.8277C141.634 30.9198 139.368 28.5625 136.573 28.5625C133.777 28.5625 131.511 30.9198 131.511 33.8277C131.511 36.7356 133.777 39.0929 136.573 39.0929Z" fill="#DBCAA7"/>
<path d="M220.362 306.843L229.022 332.864L238.499 329.452L240.232 325.738L244.78 324.099L247.588 325.517L289.468 310.435L286.649 301.962L248.033 296.88L220.362 306.843Z" fill="black"/>
<path d="M253.576 297.61L249.14 305.312" stroke="#EEEADA" stroke-miterlimit="10"/>
<path d="M259.291 298.203L254.855 305.905" stroke="#EEEADA" stroke-miterlimit="10"/>
<path d="M252.032 300.293C252.032 300.293 233.827 296.918 238.463 303.214C243.1 309.51 252.032 300.293 252.032 300.293Z" stroke="#EEEADA" stroke-miterlimit="10"/>
<path d="M253.09 298.454C253.09 298.454 240.18 286.684 249.701 288.549C259.223 290.414 253.09 298.454 253.09 298.454Z" stroke="#EEEADA" stroke-miterlimit="10"/>
</svg>
